<?xml version="1.0" encoding="UTF-8"?>
<svg id="Layer_1" data-name="Layer 1" xmlns="http://www.w3.org/2000/svg" viewBox="0 0 87.07 60.07">
  <defs>
    <style>
      .cls-1 {
        fill: #fff;
      }

      .cls-2 {
        stroke-width: .4px;
      }

      .cls-2, .cls-3 {
        stroke: #231f20;
        stroke-miterlimit: 10;
      }

      .cls-2, .cls-3, .cls-4 {
        fill: #1e1e1e;
      }

      .cls-5 {
        fill: #a01c3e;
      }

      .cls-6 {
        fill: #232323;
      }

      .cls-3 {
        stroke-width: .99px;
      }
    </style>
  </defs>
  <path class="cls-2" d="M40.09,34.25L.59,18.08c-.52-.21-.52-.95,0-1.16L40.18,.72c1.66-.68,3.52-.69,5.19-.03l39.37,15.66c.52,.21,.53,.94,.01,1.16l-39.33,16.7c-1.7,.72-3.62,.74-5.33,.03Z"/>
  <g>
    <line class="cls-1" x1="7.57" y1="16.76" x2="26.29" y2="9.38"/>
    <path class="cls-1" d="M7.71,17.24c5.45-2.15,10.9-4.3,16.35-6.45,.79-.31,1.57-.62,2.36-.93,.59-.23,.33-1.19-.26-.96-5.45,2.15-10.9,4.3-16.35,6.45-.79,.31-1.57,.62-2.36,.93-.59,.23-.33,1.19,.26,.96h0Z"/>
  </g>
  <g>
    <line class="cls-1" x1="28.27" y1="8.6" x2="33.23" y2="6.64"/>
    <path class="cls-1" d="M28.4,9.08c1.44-.57,2.89-1.14,4.33-1.71l.63-.25c.25-.1,.42-.33,.35-.61-.07-.24-.36-.45-.61-.35-1.44,.57-2.89,1.14-4.33,1.71l-.63,.25c-.25,.1-.42,.33-.35,.61,.07,.24,.36,.45,.61,.35h0Z"/>
  </g>
  <g>
    <path class="cls-5" d="M42.76,49.68c-21.86-1.32-25.98-7.87-26.49-10.06v4.12c.51,2.18,4.62,8.74,26.49,10.06,21.86-1.32,25.98-7.87,26.49-10.06v-4.12c-.51,2.18-4.62,8.74-26.49,10.06Z"/>
    <path class="cls-6" d="M42.76,37.24c-4.34,0-26.49-10.21-26.49-10.21v12.59c.51,2.18,4.62,8.74,26.49,10.06,21.86-1.32,25.98-7.87,26.49-10.06v-12.65s-22.15,10.26-26.49,10.26Z"/>
  </g>
  <line class="cls-3" x1="78.85" y1="20.02" x2="78.85" y2="46.71"/>
  <path class="cls-5" d="M87.07,56.24s-5.45-2.04-6.65-7.39l-2.4,.72s-.98,8.96,5.21,10.49l3.84-3.83Z"/>
  <circle class="cls-4" cx="78.85" cy="48.07" r="1.86"/>
</svg>